<mxfile host="Electron" modified="2024-08-21T01:49:04.036Z" agent="Mozilla/5.0 (Windows NT 10.0; Win64; x64) AppleWebKit/537.36 (KHTML, like Gecko) draw.io/24.2.5 Chrome/120.0.6099.109 Electron/28.1.0 Safari/537.36" etag="Sgn_8pWfSAJLva_qdnzK" version="24.2.5" type="device">
  <diagram name="第 1 页" id="wx_q4GtmyStSURCoPwZy">
    <mxGraphModel dx="3027" dy="2364" grid="1" gridSize="10" guides="1" tooltips="1" connect="1" arrows="1" fold="1" page="1" pageScale="1" pageWidth="827" pageHeight="1169" math="0" shadow="0">
      <root>
        <mxCell id="0" />
        <mxCell id="1" parent="0" />
        <mxCell id="Xk9Y0gbZHQbHUUyng2XC-1" value="" style="group" vertex="1" connectable="0" parent="1">
          <mxGeometry x="-100" y="190" width="1126.6" height="1200.6099999999997" as="geometry" />
        </mxCell>
        <mxCell id="Xk9Y0gbZHQbHUUyng2XC-2" value="" style="shape=mxgraph.cisco.computers_and_peripherals.pc;sketch=0;html=1;pointerEvents=1;dashed=0;fillColor=#036897;strokeColor=#ffffff;strokeWidth=2;verticalLabelPosition=bottom;verticalAlign=top;align=center;outlineConnect=0;" vertex="1" parent="Xk9Y0gbZHQbHUUyng2XC-1">
          <mxGeometry x="929.0793706293707" y="865.5930107526881" width="112.86713286713287" height="111.60763440860214" as="geometry" />
        </mxCell>
        <mxCell id="Xk9Y0gbZHQbHUUyng2XC-3" style="edgeStyle=orthogonalEdgeStyle;rounded=0;orthogonalLoop=1;jettySize=auto;html=1;exitX=0.16;exitY=0.5;exitDx=0;exitDy=0;exitPerimeter=0;entryX=1;entryY=0.5;entryDx=0;entryDy=0;entryPerimeter=0;" edge="1" parent="Xk9Y0gbZHQbHUUyng2XC-1" source="Xk9Y0gbZHQbHUUyng2XC-2" target="Xk9Y0gbZHQbHUUyng2XC-4">
          <mxGeometry relative="1" as="geometry" />
        </mxCell>
        <mxCell id="Xk9Y0gbZHQbHUUyng2XC-4" value="" style="shape=mxgraph.cisco.switches.layer_2_remote_switch;sketch=0;html=1;pointerEvents=1;dashed=0;fillColor=#036897;strokeColor=#ffffff;strokeWidth=2;verticalLabelPosition=bottom;verticalAlign=top;align=center;outlineConnect=0;" vertex="1" parent="Xk9Y0gbZHQbHUUyng2XC-1">
          <mxGeometry x="488.8981818181818" y="886.152311827957" width="113.9958041958042" height="70.48903225806451" as="geometry" />
        </mxCell>
        <mxCell id="Xk9Y0gbZHQbHUUyng2XC-5" value="" style="shape=mxgraph.cisco.computers_and_peripherals.pc;sketch=0;html=1;pointerEvents=1;dashed=0;fillColor=#036897;strokeColor=#ffffff;strokeWidth=2;verticalLabelPosition=bottom;verticalAlign=top;align=center;outlineConnect=0;" vertex="1" parent="Xk9Y0gbZHQbHUUyng2XC-1">
          <mxGeometry x="62.076923076923094" y="865.5930107526881" width="112.86713286713287" height="111.60763440860214" as="geometry" />
        </mxCell>
        <mxCell id="Xk9Y0gbZHQbHUUyng2XC-6" value="" style="shape=mxgraph.cisco.computers_and_peripherals.pc;sketch=0;html=1;pointerEvents=1;dashed=0;fillColor=#036897;strokeColor=#ffffff;strokeWidth=2;verticalLabelPosition=bottom;verticalAlign=top;align=center;outlineConnect=0;" vertex="1" parent="Xk9Y0gbZHQbHUUyng2XC-1">
          <mxGeometry x="929.0793706293707" y="660" width="112.86713286713287" height="111.60763440860214" as="geometry" />
        </mxCell>
        <mxCell id="Xk9Y0gbZHQbHUUyng2XC-7" value="" style="shape=mxgraph.cisco.computers_and_peripherals.pc;sketch=0;html=1;pointerEvents=1;dashed=0;fillColor=#036897;strokeColor=#ffffff;strokeWidth=2;verticalLabelPosition=bottom;verticalAlign=top;align=center;outlineConnect=0;" vertex="1" parent="Xk9Y0gbZHQbHUUyng2XC-1">
          <mxGeometry x="929.0793706293707" y="1089.0023655913976" width="112.86713286713287" height="111.60763440860214" as="geometry" />
        </mxCell>
        <mxCell id="Xk9Y0gbZHQbHUUyng2XC-8" style="edgeStyle=orthogonalEdgeStyle;rounded=1;orthogonalLoop=1;jettySize=auto;html=1;exitX=0.5;exitY=0;exitDx=0;exitDy=0;exitPerimeter=0;entryX=0.16;entryY=0.5;entryDx=0;entryDy=0;entryPerimeter=0;curved=0;endArrow=none;endFill=0;" edge="1" parent="Xk9Y0gbZHQbHUUyng2XC-1" source="Xk9Y0gbZHQbHUUyng2XC-4" target="Xk9Y0gbZHQbHUUyng2XC-6">
          <mxGeometry relative="1" as="geometry">
            <Array as="points">
              <mxPoint x="546.4604195804196" y="716.3912258064516" />
            </Array>
          </mxGeometry>
        </mxCell>
        <mxCell id="Xk9Y0gbZHQbHUUyng2XC-9" style="edgeStyle=orthogonalEdgeStyle;rounded=1;orthogonalLoop=1;jettySize=auto;html=1;exitX=0.5;exitY=1;exitDx=0;exitDy=0;exitPerimeter=0;entryX=0.16;entryY=0.5;entryDx=0;entryDy=0;entryPerimeter=0;curved=0;endArrow=none;endFill=0;" edge="1" parent="Xk9Y0gbZHQbHUUyng2XC-1" source="Xk9Y0gbZHQbHUUyng2XC-4" target="Xk9Y0gbZHQbHUUyng2XC-7">
          <mxGeometry relative="1" as="geometry">
            <Array as="points">
              <mxPoint x="546.4604195804196" y="1151.0735913978494" />
            </Array>
          </mxGeometry>
        </mxCell>
        <mxCell id="Xk9Y0gbZHQbHUUyng2XC-10" value="&lt;b&gt;ARP Request(广播)&lt;/b&gt;" style="text;html=1;align=center;verticalAlign=middle;whiteSpace=wrap;rounded=0;" vertex="1" parent="Xk9Y0gbZHQbHUUyng2XC-1">
          <mxGeometry x="270" y="850.9100000000001" width="141.2" height="35.24" as="geometry" />
        </mxCell>
        <mxCell id="Xk9Y0gbZHQbHUUyng2XC-11" value="&lt;font style=&quot;font-size: 11px;&quot;&gt;ip: 192.168.1.2&lt;/font&gt;&lt;div style=&quot;font-size: 11px;&quot;&gt;MAC：AA:AA:AA:AA:AA:AA&lt;/div&gt;" style="text;html=1;align=center;verticalAlign=middle;whiteSpace=wrap;rounded=0;" vertex="1" parent="Xk9Y0gbZHQbHUUyng2XC-1">
          <mxGeometry x="40.000000000000014" y="812.73" width="170" height="35.24" as="geometry" />
        </mxCell>
        <mxCell id="Xk9Y0gbZHQbHUUyng2XC-12" value="&lt;font style=&quot;font-size: 11px;&quot;&gt;ip: 192.168.1.2&lt;/font&gt;&lt;div style=&quot;font-size: 11px;&quot;&gt;MAC：BB:BB:BB:BB:BB:BB&lt;/div&gt;" style="text;html=1;align=center;verticalAlign=middle;whiteSpace=wrap;rounded=0;" vertex="1" parent="Xk9Y0gbZHQbHUUyng2XC-1">
          <mxGeometry x="889.58" y="812.73" width="177" height="35.24" as="geometry" />
        </mxCell>
        <mxCell id="Xk9Y0gbZHQbHUUyng2XC-13" value="&lt;div style=&quot;font-size: 11px;&quot;&gt;&lt;font style=&quot;font-size: 11px;&quot;&gt;&lt;font style=&quot;font-size: 11px;&quot;&gt;源MAC：&lt;/font&gt;&lt;span style=&quot;background-color: initial;&quot;&gt;BB:BB:BB:BB:BB:BB&lt;/span&gt;&lt;/font&gt;&lt;/div&gt;&lt;div style=&quot;font-size: 11px;&quot;&gt;&lt;font style=&quot;font-size: 11px;&quot;&gt;目标MAC：AA:AA:AA:AA:AA:AA&lt;span style=&quot;background-color: initial;&quot;&gt;&lt;br&gt;&lt;/span&gt;&lt;/font&gt;&lt;/div&gt;&lt;font style=&quot;font-size: 11px;&quot;&gt;源ip: 192.168.1.2&lt;/font&gt;&lt;div style=&quot;font-size: 11px;&quot;&gt;&lt;font style=&quot;font-size: 11px;&quot;&gt;目标ip: 192.168.1.2&lt;/font&gt;&lt;/div&gt;" style="shape=note;whiteSpace=wrap;html=1;backgroundOutline=1;darkOpacity=0.05;fillColor=#fff2cc;strokeColor=#d6b656;size=6;" vertex="1" parent="Xk9Y0gbZHQbHUUyng2XC-1">
          <mxGeometry x="692.08" y="839.9999999999999" width="179.19" height="70" as="geometry" />
        </mxCell>
        <mxCell id="Xk9Y0gbZHQbHUUyng2XC-14" style="edgeStyle=orthogonalEdgeStyle;rounded=0;orthogonalLoop=1;jettySize=auto;html=1;exitX=0;exitY=0.5;exitDx=0;exitDy=0;exitPerimeter=0;entryX=0.83;entryY=0.5;entryDx=0;entryDy=0;entryPerimeter=0;" edge="1" parent="Xk9Y0gbZHQbHUUyng2XC-1" source="Xk9Y0gbZHQbHUUyng2XC-4" target="Xk9Y0gbZHQbHUUyng2XC-5">
          <mxGeometry relative="1" as="geometry" />
        </mxCell>
        <mxCell id="Xk9Y0gbZHQbHUUyng2XC-15" value="&lt;div style=&quot;font-size: 11px;&quot;&gt;&lt;div&gt;源MAC：&lt;span style=&quot;background-color: initial;&quot;&gt;BB:BB:BB:BB:BB:BB&lt;/span&gt;&lt;/div&gt;&lt;div&gt;目标MAC：AA:AA:AA:AA:AA:AA&lt;span style=&quot;background-color: initial;&quot;&gt;&lt;br&gt;&lt;/span&gt;&lt;/div&gt;源ip: 192.168.1.2&lt;div&gt;目标ip: 192.168.1.2&lt;/div&gt;&lt;/div&gt;" style="shape=note;whiteSpace=wrap;html=1;backgroundOutline=1;darkOpacity=0.05;fillColor=#fff2cc;strokeColor=#d6b656;size=6;" vertex="1" parent="Xk9Y0gbZHQbHUUyng2XC-1">
          <mxGeometry x="242.08" y="930.0000000000001" width="179.19" height="70" as="geometry" />
        </mxCell>
        <mxCell id="Xk9Y0gbZHQbHUUyng2XC-17" value="" style="shape=mxgraph.cisco.switches.layer_2_remote_switch;sketch=0;html=1;pointerEvents=1;dashed=0;fillColor=#036897;strokeColor=#ffffff;strokeWidth=2;verticalLabelPosition=bottom;verticalAlign=top;align=center;outlineConnect=0;" vertex="1" parent="Xk9Y0gbZHQbHUUyng2XC-1">
          <mxGeometry x="608.8981818181818" y="226.15231182795696" width="113.9958041958042" height="70.48903225806451" as="geometry" />
        </mxCell>
        <mxCell id="Xk9Y0gbZHQbHUUyng2XC-18" value="" style="shape=mxgraph.cisco.computers_and_peripherals.pc;sketch=0;html=1;pointerEvents=1;dashed=0;fillColor=#036897;strokeColor=#ffffff;strokeWidth=2;verticalLabelPosition=bottom;verticalAlign=top;align=center;outlineConnect=0;" vertex="1" parent="Xk9Y0gbZHQbHUUyng2XC-1">
          <mxGeometry x="62.076923076923066" y="205.59301075268814" width="112.86713286713287" height="111.60763440860214" as="geometry" />
        </mxCell>
        <mxCell id="Xk9Y0gbZHQbHUUyng2XC-19" value="" style="shape=mxgraph.cisco.computers_and_peripherals.pc;sketch=0;html=1;pointerEvents=1;dashed=0;fillColor=#036897;strokeColor=#ffffff;strokeWidth=2;verticalLabelPosition=bottom;verticalAlign=top;align=center;outlineConnect=0;" vertex="1" parent="Xk9Y0gbZHQbHUUyng2XC-1">
          <mxGeometry x="944.2193706293707" y="205.59301075268814" width="112.86713286713287" height="111.60763440860214" as="geometry" />
        </mxCell>
        <mxCell id="Xk9Y0gbZHQbHUUyng2XC-20" style="edgeStyle=orthogonalEdgeStyle;rounded=0;orthogonalLoop=1;jettySize=auto;html=1;exitX=0.83;exitY=0.5;exitDx=0;exitDy=0;exitPerimeter=0;entryX=0;entryY=0.5;entryDx=0;entryDy=0;entryPerimeter=0;" edge="1" parent="Xk9Y0gbZHQbHUUyng2XC-1" source="Xk9Y0gbZHQbHUUyng2XC-18" target="Xk9Y0gbZHQbHUUyng2XC-17">
          <mxGeometry relative="1" as="geometry" />
        </mxCell>
        <mxCell id="Xk9Y0gbZHQbHUUyng2XC-21" style="edgeStyle=orthogonalEdgeStyle;rounded=0;orthogonalLoop=1;jettySize=auto;html=1;exitX=1;exitY=0.5;exitDx=0;exitDy=0;exitPerimeter=0;entryX=0.16;entryY=0.5;entryDx=0;entryDy=0;entryPerimeter=0;" edge="1" parent="Xk9Y0gbZHQbHUUyng2XC-1" source="Xk9Y0gbZHQbHUUyng2XC-17" target="Xk9Y0gbZHQbHUUyng2XC-19">
          <mxGeometry relative="1" as="geometry" />
        </mxCell>
        <mxCell id="Xk9Y0gbZHQbHUUyng2XC-22" value="" style="shape=mxgraph.cisco.computers_and_peripherals.pc;sketch=0;html=1;pointerEvents=1;dashed=0;fillColor=#036897;strokeColor=#ffffff;strokeWidth=2;verticalLabelPosition=bottom;verticalAlign=top;align=center;outlineConnect=0;" vertex="1" parent="Xk9Y0gbZHQbHUUyng2XC-1">
          <mxGeometry x="944.2193706293707" width="112.86713286713287" height="111.60763440860214" as="geometry" />
        </mxCell>
        <mxCell id="Xk9Y0gbZHQbHUUyng2XC-23" value="" style="shape=mxgraph.cisco.computers_and_peripherals.pc;sketch=0;html=1;pointerEvents=1;dashed=0;fillColor=#036897;strokeColor=#ffffff;strokeWidth=2;verticalLabelPosition=bottom;verticalAlign=top;align=center;outlineConnect=0;" vertex="1" parent="Xk9Y0gbZHQbHUUyng2XC-1">
          <mxGeometry x="944.2193706293707" y="434.6823655913978" width="112.86713286713287" height="111.60763440860214" as="geometry" />
        </mxCell>
        <mxCell id="Xk9Y0gbZHQbHUUyng2XC-24" style="edgeStyle=orthogonalEdgeStyle;rounded=1;orthogonalLoop=1;jettySize=auto;html=1;exitX=0.5;exitY=0;exitDx=0;exitDy=0;exitPerimeter=0;entryX=0.16;entryY=0.5;entryDx=0;entryDy=0;entryPerimeter=0;curved=0;" edge="1" parent="Xk9Y0gbZHQbHUUyng2XC-1" source="Xk9Y0gbZHQbHUUyng2XC-17" target="Xk9Y0gbZHQbHUUyng2XC-22">
          <mxGeometry relative="1" as="geometry">
            <Array as="points">
              <mxPoint x="666.4604195804196" y="56.391225806451615" />
            </Array>
          </mxGeometry>
        </mxCell>
        <mxCell id="Xk9Y0gbZHQbHUUyng2XC-25" style="edgeStyle=orthogonalEdgeStyle;rounded=1;orthogonalLoop=1;jettySize=auto;html=1;exitX=0.5;exitY=1;exitDx=0;exitDy=0;exitPerimeter=0;entryX=0.16;entryY=0.5;entryDx=0;entryDy=0;entryPerimeter=0;curved=0;" edge="1" parent="Xk9Y0gbZHQbHUUyng2XC-1" source="Xk9Y0gbZHQbHUUyng2XC-17" target="Xk9Y0gbZHQbHUUyng2XC-23">
          <mxGeometry relative="1" as="geometry">
            <Array as="points">
              <mxPoint x="666.4604195804196" y="491.07359139784944" />
            </Array>
          </mxGeometry>
        </mxCell>
        <mxCell id="Xk9Y0gbZHQbHUUyng2XC-26" value="&lt;b&gt;GratuitousARP Request(广播)&lt;/b&gt;" style="text;html=1;align=center;verticalAlign=middle;whiteSpace=wrap;rounded=0;" vertex="1" parent="Xk9Y0gbZHQbHUUyng2XC-1">
          <mxGeometry x="290" y="200" width="173.28" height="35.24" as="geometry" />
        </mxCell>
        <mxCell id="Xk9Y0gbZHQbHUUyng2XC-27" value="&lt;font style=&quot;font-size: 11px;&quot;&gt;ip: 192.168.1.2&lt;/font&gt;&lt;div style=&quot;font-size: 11px;&quot;&gt;MAC：AA:AA:AA:AA:AA:AA&lt;/div&gt;" style="text;html=1;align=center;verticalAlign=middle;whiteSpace=wrap;rounded=0;" vertex="1" parent="Xk9Y0gbZHQbHUUyng2XC-1">
          <mxGeometry y="152.72623655913978" width="237.020979020979" height="35.244516129032256" as="geometry" />
        </mxCell>
        <mxCell id="Xk9Y0gbZHQbHUUyng2XC-28" value="&lt;font style=&quot;font-size: 11px;&quot;&gt;ip: 192.168.1.2&lt;/font&gt;&lt;div style=&quot;font-size: 11px;&quot;&gt;MAC：BB:BB:BB:BB:BB:BB&lt;/div&gt;" style="text;html=1;align=center;verticalAlign=middle;whiteSpace=wrap;rounded=0;" vertex="1" parent="Xk9Y0gbZHQbHUUyng2XC-1">
          <mxGeometry x="889.579020979021" y="152.72623655913978" width="237.020979020979" height="35.244516129032256" as="geometry" />
        </mxCell>
        <mxCell id="Xk9Y0gbZHQbHUUyng2XC-29" value="&lt;div style=&quot;font-size: 11px;&quot;&gt;&lt;font style=&quot;font-size: 11px;&quot;&gt;&lt;font style=&quot;font-size: 11px;&quot;&gt;源MAC：&lt;/font&gt;&lt;span style=&quot;background-color: initial;&quot;&gt;AA:AA:AA:AA:AA:AA&lt;/span&gt;&lt;/font&gt;&lt;/div&gt;&lt;div style=&quot;font-size: 11px;&quot;&gt;&lt;font style=&quot;font-size: 11px;&quot;&gt;目标MAC：FF:FF:FF:FF:FF:FF&lt;span style=&quot;background-color: initial;&quot;&gt;&lt;br&gt;&lt;/span&gt;&lt;/font&gt;&lt;/div&gt;&lt;font style=&quot;font-size: 11px;&quot;&gt;源ip: 192.168.1.2&lt;/font&gt;&lt;div style=&quot;font-size: 11px;&quot;&gt;&lt;font style=&quot;font-size: 11px;&quot;&gt;目标ip: 192.168.1.2&lt;/font&gt;&lt;/div&gt;" style="shape=note;whiteSpace=wrap;html=1;backgroundOutline=1;darkOpacity=0.05;fillColor=#fff2cc;strokeColor=#d6b656;size=6;" vertex="1" parent="Xk9Y0gbZHQbHUUyng2XC-1">
          <mxGeometry x="738.89" y="280" width="160" height="70" as="geometry" />
        </mxCell>
        <mxCell id="Xk9Y0gbZHQbHUUyng2XC-30" value="&lt;div style=&quot;font-size: 11px;&quot;&gt;&lt;font style=&quot;font-size: 11px;&quot;&gt;&lt;font style=&quot;font-size: 11px;&quot;&gt;源MAC：&lt;/font&gt;&lt;span style=&quot;background-color: initial;&quot;&gt;AA:AA:AA:AA:AA:AA&lt;/span&gt;&lt;/font&gt;&lt;/div&gt;&lt;div style=&quot;font-size: 11px;&quot;&gt;&lt;font style=&quot;font-size: 11px;&quot;&gt;目标MAC：FF:FF:FF:FF:FF:FF&lt;span style=&quot;background-color: initial;&quot;&gt;&lt;br&gt;&lt;/span&gt;&lt;/font&gt;&lt;/div&gt;&lt;font style=&quot;font-size: 11px;&quot;&gt;源ip: 192.168.1.2&lt;/font&gt;&lt;div style=&quot;font-size: 11px;&quot;&gt;&lt;font style=&quot;font-size: 11px;&quot;&gt;目标ip: 192.168.1.2&lt;/font&gt;&lt;/div&gt;" style="shape=note;whiteSpace=wrap;html=1;backgroundOutline=1;darkOpacity=0.05;fillColor=#fff2cc;strokeColor=#d6b656;size=6;" vertex="1" parent="Xk9Y0gbZHQbHUUyng2XC-1">
          <mxGeometry x="738.89" y="70" width="160" height="70" as="geometry" />
        </mxCell>
        <mxCell id="Xk9Y0gbZHQbHUUyng2XC-31" value="&lt;div style=&quot;font-size: 11px;&quot;&gt;&lt;font style=&quot;font-size: 11px;&quot;&gt;&lt;font style=&quot;font-size: 11px;&quot;&gt;源MAC：&lt;/font&gt;&lt;span style=&quot;background-color: initial;&quot;&gt;AA:AA:AA:AA:AA:AA&lt;/span&gt;&lt;/font&gt;&lt;/div&gt;&lt;div style=&quot;font-size: 11px;&quot;&gt;&lt;font style=&quot;font-size: 11px;&quot;&gt;目标MAC：FF:FF:FF:FF:FF:FF&lt;span style=&quot;background-color: initial;&quot;&gt;&lt;br&gt;&lt;/span&gt;&lt;/font&gt;&lt;/div&gt;&lt;font style=&quot;font-size: 11px;&quot;&gt;源ip: 192.168.1.2&lt;/font&gt;&lt;div style=&quot;font-size: 11px;&quot;&gt;&lt;font style=&quot;font-size: 11px;&quot;&gt;目标ip: 192.168.1.2&lt;/font&gt;&lt;/div&gt;" style="shape=note;whiteSpace=wrap;html=1;backgroundOutline=1;darkOpacity=0.05;fillColor=#fff2cc;strokeColor=#d6b656;size=6;" vertex="1" parent="Xk9Y0gbZHQbHUUyng2XC-1">
          <mxGeometry x="738.89" y="505" width="160" height="70" as="geometry" />
        </mxCell>
        <mxCell id="Xk9Y0gbZHQbHUUyng2XC-32" value="&lt;div style=&quot;font-size: 11px;&quot;&gt;&lt;font style=&quot;font-size: 11px;&quot;&gt;&lt;font style=&quot;font-size: 11px;&quot;&gt;源MAC：&lt;/font&gt;&lt;span style=&quot;background-color: initial;&quot;&gt;AA:AA:AA:AA:AA:AA&lt;/span&gt;&lt;/font&gt;&lt;/div&gt;&lt;div style=&quot;font-size: 11px;&quot;&gt;&lt;font style=&quot;font-size: 11px;&quot;&gt;目标MAC：FF:FF:FF:FF:FF:FF&lt;span style=&quot;background-color: initial;&quot;&gt;&lt;br&gt;&lt;/span&gt;&lt;/font&gt;&lt;/div&gt;&lt;font style=&quot;font-size: 11px;&quot;&gt;源ip: 192.168.1.2&lt;/font&gt;&lt;div style=&quot;font-size: 11px;&quot;&gt;&lt;font style=&quot;font-size: 11px;&quot;&gt;目标ip: 192.168.1.2&lt;/font&gt;&lt;/div&gt;" style="shape=note;whiteSpace=wrap;html=1;backgroundOutline=1;darkOpacity=0.05;fillColor=#fff2cc;strokeColor=#d6b656;size=6;" vertex="1" parent="Xk9Y0gbZHQbHUUyng2XC-1">
          <mxGeometry x="303.28" y="280" width="160" height="70" as="geometry" />
        </mxCell>
        <mxCell id="Xk9Y0gbZHQbHUUyng2XC-36" value="&lt;b&gt;who has 192.168.1.2? Tell 192.168.1.2&lt;/b&gt;" style="text;html=1;align=center;verticalAlign=middle;whiteSpace=wrap;rounded=0;" vertex="1" parent="Xk9Y0gbZHQbHUUyng2XC-1">
          <mxGeometry x="251.64" y="226.15" width="250" height="35.24" as="geometry" />
        </mxCell>
        <mxCell id="Xk9Y0gbZHQbHUUyng2XC-37" value="&lt;b&gt;who has 192.168.1.2? Tell 192.168.1.2&lt;/b&gt;" style="text;html=1;align=center;verticalAlign=middle;whiteSpace=wrap;rounded=0;" vertex="1" parent="Xk9Y0gbZHQbHUUyng2XC-1">
          <mxGeometry x="694.22" y="20.000000000000014" width="250" height="35.24" as="geometry" />
        </mxCell>
        <mxCell id="Xk9Y0gbZHQbHUUyng2XC-38" value="&lt;b&gt;who has 192.168.1.2? Tell 192.168.1.2&lt;/b&gt;" style="text;html=1;align=center;verticalAlign=middle;whiteSpace=wrap;rounded=0;" vertex="1" parent="Xk9Y0gbZHQbHUUyng2XC-1">
          <mxGeometry x="710" y="226.15000000000003" width="250" height="35.24" as="geometry" />
        </mxCell>
        <mxCell id="Xk9Y0gbZHQbHUUyng2XC-39" value="&lt;b&gt;who has 192.168.1.2? Tell 192.168.1.2&lt;/b&gt;" style="text;html=1;align=center;verticalAlign=middle;whiteSpace=wrap;rounded=0;" vertex="1" parent="Xk9Y0gbZHQbHUUyng2XC-1">
          <mxGeometry x="694.22" y="460" width="250" height="35.24" as="geometry" />
        </mxCell>
        <mxCell id="Xk9Y0gbZHQbHUUyng2XC-40" value="&lt;b&gt;我是 192.168.1.2，ip 冲突了&lt;/b&gt;" style="text;html=1;align=center;verticalAlign=middle;whiteSpace=wrap;rounded=0;" vertex="1" parent="Xk9Y0gbZHQbHUUyng2XC-1">
          <mxGeometry x="260.6" y="886.15" width="160" height="35.24" as="geometry" />
        </mxCell>
        <mxCell id="Xk9Y0gbZHQbHUUyng2XC-41" value="&lt;b&gt;我是 192.168.1.2，ip 冲突了&lt;/b&gt;" style="text;html=1;align=center;verticalAlign=middle;whiteSpace=wrap;rounded=0;" vertex="1" parent="Xk9Y0gbZHQbHUUyng2XC-1">
          <mxGeometry x="710" y="930.0000000000001" width="160" height="35.24" as="geometry" />
        </mxCell>
      </root>
    </mxGraphModel>
  </diagram>
</mxfile>
